<!--?xml version="1.0" standalone="no"?-->
              <svg id="sw-js-blob-svg" viewBox="0 0 100 100" xmlns="http://www.w3.org/2000/svg" version="1.1">
                    <defs> 
                        <linearGradient id="sw-gradient" x1="0" x2="1" y1="1" y2="0">
                            <stop id="stop1" stop-color="rgba(74.477, 55, 248, 1)" offset="0%"></stop>
                            <stop id="stop2" stop-color="rgba(52.967, 11.402, 105.942, 1)" offset="100%"></stop>
                        </linearGradient>
                    </defs>
                <path fill="url(#sw-gradient)" d="M23.9,-34C29.3,-29,30.8,-19.7,33.5,-11C36.2,-2.3,40,6,38.1,12.6C36.2,19.1,28.6,24,21.3,28.2C14,32.3,7,35.9,-0.6,36.7C-8.2,37.5,-16.3,35.6,-22,30.8C-27.6,26.1,-30.8,18.6,-34,10.6C-37.1,2.6,-40.3,-5.7,-39.2,-13.9C-38.2,-22,-32.8,-30,-25.6,-34.4C-18.3,-38.9,-9.2,-39.9,0,-39.9C9.2,-40,18.5,-39.1,23.9,-34Z" width="100%" height="100%" transform="translate(50 50)" stroke-width="0" style="transition: all 0.3s ease 0s;"></path>
              </svg>