<?xml version="1.0" standalone="no"?>
<svg xmlns="http://www.w3.org/2000/svg" viewBox="0 0 197 64" width="197" height="64"><g fill="#8b50b2" color="#8b50b2" transform="translate(76.304 0) scale(0.9166667) "><svg width="48.0" height="40.0" x="0.0" y="0.0" viewBox="0 0 48 40"><path fill="currentColor" fill-rule="evenodd" d="M41.576 0L12.872 28.703v-2.95L38.625 0h-4.1l-10.9 10.898L12.725 0h-4.1l12.949 12.95-1.476 1.474L5.675 0h-4.1l16.474 16.475-1.475 1.475L0 1.376V40h2.9V8.378l2.087 2.086V40h2.9V13.364l2.086 2.087V40h2.9v-.146l10.752-10.752L34.525 40h2.951V15.253l2.086-2.087V40h2.9V10.266l2.087-2.086V40h2.898V5.434h-.153l.153-.154V1.178L12.872 35.754v-2.95L45.675 0h-4.1zm-8.849 20l1.848-1.848v3.697L32.727 20zm-19.855-1.65L14.522 20l-1.65 1.65V18.35zm16.329 5.176l1.476-1.474 3.898 3.899v2.952l-5.374-5.377zm-3.526 3.526l1.475-1.476 7.425 7.426v2.95l-8.9-8.9z"></path></svg></g><path fill="#8b50b2" fill-rule="nonzero" d="M2.42 17.21L2.42 17.21Q2.42 17.83 2.09 18.22Q1.75 18.60 1.21 18.60Q0.67 18.60 0.34 18.22Q0 17.83 0 17.42Q0 17.02 0.02 15.86L0.02 15.86Q0.12 13.18 0.12 10.07Q0.12 6.96 0.06 4.33Q0 1.70 0 1.63L0 1.63Q0 0.94 0.35 0.53Q0.70 0.12 1.20 0.12L1.20 0.12Q1.97 0.12 2.40 1.06L2.40 1.06L7.75 12.55Q9.96 7.90 12.62 1.94L12.62 1.94Q13.15 0.77 13.44 0.44Q13.73 0.12 14.27 0.12Q14.81 0.12 15.16 0.52Q15.50 0.91 15.50 1.63L15.50 1.63Q15.38 2.26 15.38 7.08Q15.38 11.90 15.46 14.52Q15.53 17.14 15.53 17.21L15.53 17.21Q15.53 17.83 15.19 18.22Q14.86 18.60 14.32 18.60Q13.78 18.60 13.44 18.22Q13.10 17.83 13.10 17.41Q13.10 16.99 13.13 15.86L13.13 15.86Q13.27 11.66 13.27 9.43L13.27 9.43L13.27 5.76L8.93 14.90Q8.52 15.74 7.82 15.74Q7.13 15.74 6.70 14.86L6.70 14.86L2.28 5.76L2.28 9.43Q2.28 11.90 2.35 14.52Q2.42 17.14 2.42 17.21ZM33.77 9.55L33.77 9.55Q33.77 12.24 34.12 14.10Q34.46 15.96 34.97 16.20L34.97 16.20Q35.16 16.30 35.42 16.33Q35.69 16.37 35.81 16.44Q35.93 16.51 35.93 16.70L35.93 16.70Q35.93 17.57 35.45 18.12Q34.97 18.67 34.18 18.67L34.18 18.67Q33.12 18.67 32.59 17.47Q32.06 16.27 32.06 14.40L32.06 14.40Q30.79 16.42 29.39 17.57Q27.98 18.72 26.24 18.72Q24.50 18.72 23.30 17.89Q22.10 17.06 21.38 15.72L21.38 15.72Q19.94 12.96 19.94 9.65L19.94 9.65Q19.94 5.71 21.98 2.86Q24.02 0 27.26 0L27.26 0Q28.51 0 29.70 0.47Q30.89 0.94 31.68 1.66L31.68 1.66Q31.68 0 32.90 0L32.90 0Q34.42 0 34.42 2.42L34.42 2.42Q34.42 4.22 33.77 9.55ZM31.87 9.84L31.87 9.84L31.73 3.96Q29.69 2.09 27.26 2.09L27.26 2.09Q25.27 2.09 23.76 4.24Q22.25 6.38 22.25 9.46Q22.25 12.53 23.29 14.58Q24.34 16.63 26.12 16.63Q27.91 16.63 29.72 14.35Q31.54 12.07 31.87 9.84ZM39.62 0.22L39.62 0.22L44.40 0.36L49.03 0.22Q49.68 0.22 50.08 0.52Q50.47 0.82 50.47 1.34Q50.47 1.87 50.08 2.17Q49.68 2.47 49.03 2.47L49.03 2.47L45.58 2.33Q45.48 4.66 45.48 9.43L45.48 9.43L45.62 17.21Q45.62 17.83 45.29 18.22Q44.95 18.60 44.41 18.60Q43.87 18.60 43.52 18.22Q43.18 17.83 43.18 17.21L43.18 17.21L43.32 9.43Q43.32 5.26 43.20 2.33L43.20 2.33L39.62 2.47Q38.98 2.47 38.58 2.17Q38.18 1.87 38.18 1.34Q38.18 0.82 38.58 0.52Q38.98 0.22 39.62 0.22ZM60.38 2.50L60.38 2.50L58.42 2.40Q58.32 4.73 58.32 9.08Q58.32 13.44 58.44 16.37L58.44 16.37L60.38 16.27Q61.03 16.27 61.43 16.57Q61.82 16.87 61.82 17.39Q61.82 17.90 61.43 18.20Q61.03 18.50 60.38 18.50L60.38 18.50L57.24 18.36L54.10 18.50Q53.45 18.50 53.05 18.20Q52.66 17.90 52.66 17.39Q52.66 16.87 53.05 16.57Q53.45 16.27 54.10 16.27L54.10 16.27L56.04 16.39Q56.16 13.46 56.16 9.10Q56.16 4.73 56.06 2.40L56.06 2.40L54.10 2.50Q53.45 2.50 53.05 2.18Q52.66 1.87 52.66 1.34Q52.66 0.82 53.05 0.52Q53.45 0.22 54.10 0.22L54.10 0.22L57.24 0.36L60.38 0.22Q61.03 0.22 61.43 0.52Q61.82 0.82 61.82 1.34Q61.82 1.87 61.43 2.18Q61.03 2.50 60.38 2.50ZM78.62 9.55L78.62 9.55Q78.62 12.24 78.97 14.10Q79.32 15.96 79.82 16.20L79.82 16.20Q80.02 16.30 80.28 16.33Q80.54 16.37 80.66 16.44Q80.78 16.51 80.78 16.70L80.78 16.70Q80.78 17.57 80.30 18.12Q79.82 18.67 79.03 18.67L79.03 18.67Q77.98 18.67 77.45 17.47Q76.92 16.27 76.92 14.40L76.92 14.40Q75.65 16.42 74.24 17.57Q72.84 18.72 71.10 18.72Q69.36 18.72 68.16 17.89Q66.96 17.06 66.24 15.72L66.24 15.72Q64.80 12.96 64.80 9.65L64.80 9.65Q64.80 5.71 66.84 2.86Q68.88 0 72.12 0L72.12 0Q73.37 0 74.56 0.47Q75.74 0.94 76.54 1.66L76.54 1.66Q76.54 0 77.76 0L77.76 0Q79.27 0 79.27 2.42L79.27 2.42Q79.27 4.22 78.62 9.55ZM76.73 9.84L76.73 9.84L76.58 3.96Q74.54 2.09 72.12 2.09L72.12 2.09Q70.13 2.09 68.62 4.24Q67.10 6.38 67.10 9.46Q67.10 12.53 68.15 14.58Q69.19 16.63 70.98 16.63Q72.77 16.63 74.58 14.35Q76.39 12.07 76.73 9.84ZM95.64 13.46L95.64 13.46Q95.64 15.70 93.95 17.21Q92.26 18.72 89.57 18.72L89.57 18.72Q87.48 18.72 85.68 17.71Q83.88 16.70 83.88 15.74L83.88 15.74Q83.88 15.31 84.17 15.02Q84.46 14.74 84.90 14.74Q85.34 14.74 85.80 15.04Q86.26 15.34 86.64 15.68Q87.02 16.03 87.80 16.33Q88.58 16.63 89.57 16.63L89.57 16.63Q91.20 16.63 92.27 15.79Q93.34 14.95 93.34 13.46L93.34 13.46Q93.34 12.48 92.42 11.59Q91.51 10.70 90.22 9.98Q88.92 9.26 87.62 8.51Q86.33 7.75 85.42 6.66Q84.50 5.57 84.50 4.30L84.50 4.30Q84.50 2.54 86.04 1.27Q87.58 0 89.66 0Q91.75 0 93.22 0.71Q94.68 1.42 94.68 2.33L94.68 2.33Q94.68 2.78 94.39 3.05Q94.10 3.31 93.62 3.31Q93.14 3.31 92.69 3Q92.23 2.69 91.56 2.38Q90.89 2.06 89.76 2.06Q88.63 2.06 87.72 2.69Q86.81 3.31 86.81 4.22Q86.81 5.14 87.72 5.92Q88.63 6.70 89.93 7.42Q91.22 8.14 92.52 8.93Q93.82 9.72 94.73 10.90Q95.64 12.07 95.64 13.46ZM107.02 0.22L107.02 0.22L111.79 0.36L116.42 0.22Q117.07 0.22 117.47 0.52Q117.86 0.82 117.86 1.34Q117.86 1.87 117.47 2.17Q117.07 2.47 116.42 2.47L116.42 2.47L112.97 2.33Q112.87 4.66 112.87 9.43L112.87 9.43L113.02 17.21Q113.02 17.83 112.68 18.22Q112.34 18.60 111.80 18.60Q111.26 18.60 110.92 18.22Q110.57 17.83 110.57 17.21L110.57 17.21L110.71 9.43Q110.71 5.26 110.59 2.33L110.59 2.33L107.02 2.47Q106.37 2.47 105.97 2.17Q105.58 1.87 105.58 1.34Q105.58 0.82 105.97 0.52Q106.37 0.22 107.02 0.22ZM128.70 16.63Q131.21 16.63 132.88 14.42Q134.54 12.22 134.54 9.31Q134.54 6.41 132.89 4.24Q131.23 2.06 128.70 2.06Q126.17 2.06 124.50 4.24Q122.83 6.41 122.83 9.30Q122.83 12.19 124.51 14.41Q126.19 16.63 128.70 16.63ZM134.53 2.71Q136.85 5.42 136.85 9.34Q136.85 13.25 134.51 15.98Q132.17 18.72 128.68 18.72Q125.18 18.72 122.86 15.98Q120.53 13.25 120.53 9.34Q120.53 5.42 122.88 2.71Q125.23 0 128.72 0Q132.22 0 134.53 2.71ZM143.18 9.84L143.18 9.84Q143.18 9.84 143.26 16.99L143.26 16.99Q143.26 18.65 142.03 18.65L142.03 18.65Q140.54 18.65 140.54 16.14Q140.54 13.63 141.19 9.12L141.19 9.12Q141.19 7.56 140.92 4.88Q140.64 2.21 140.64 1.61Q140.64 1.01 140.98 0.56Q141.31 0.12 141.90 0.12Q142.49 0.12 142.82 0.56Q143.16 1.01 143.16 1.56Q143.16 2.11 143.15 2.89Q143.14 3.67 143.14 4.20L143.14 4.20Q143.83 2.54 145.27 1.28Q146.71 0.02 148.21 0.02Q149.71 0.02 150.50 0.61Q151.30 1.20 151.30 1.88Q151.30 2.57 150.92 2.96Q150.55 3.36 150.00 3.36Q149.45 3.36 148.79 2.76Q148.13 2.16 147.72 2.16L147.72 2.16Q146.62 2.16 145.10 4.72Q143.59 7.27 143.18 9.84ZM156.70 9.84L156.70 9.84Q156.70 9.84 156.77 16.99L156.77 16.99Q156.77 18.65 155.54 18.65L155.54 18.65Q154.06 18.65 154.06 16.14Q154.06 13.63 154.70 9.12L154.70 9.12Q154.70 7.56 154.43 4.88Q154.15 2.21 154.15 1.61Q154.15 1.01 154.49 0.56Q154.82 0.12 155.41 0.12Q156.00 0.12 156.34 0.56Q156.67 1.01 156.67 1.56Q156.67 2.11 156.66 2.89Q156.65 3.67 156.65 4.20L156.65 4.20Q157.34 2.54 158.78 1.28Q160.22 0.02 161.72 0.02Q163.22 0.02 164.02 0.61Q164.81 1.20 164.81 1.88Q164.81 2.57 164.44 2.96Q164.06 3.36 163.51 3.36Q162.96 3.36 162.30 2.76Q161.64 2.16 161.23 2.16L161.23 2.16Q160.13 2.16 158.62 4.72Q157.10 7.27 156.70 9.84ZM179.90 5.09L179.90 5.09Q179.90 3.96 178.98 3.02Q178.06 2.09 176.45 2.09Q174.84 2.09 173.62 3.05L173.62 3.05Q171.36 4.80 170.71 8.26L170.71 8.26Q172.54 8.76 174.83 8.76Q177.12 8.76 178.51 7.80Q179.90 6.84 179.90 5.09ZM181.63 15.82Q181.63 16.66 179.93 17.69Q178.22 18.72 176.26 18.72Q174.29 18.72 172.82 17.98Q171.36 17.23 170.42 15.98L170.42 15.98Q168.48 13.39 168.34 9.91L168.34 9.91Q166.61 9.38 166.61 8.21L166.61 8.21Q166.61 7.73 166.88 7.45Q167.16 7.18 167.52 7.18Q167.88 7.18 168.53 7.46L168.53 7.46Q169.27 4.25 171.32 2.12Q173.38 0 176.35 0L176.35 0Q178.78 0 180.49 1.46Q182.21 2.93 182.21 4.99Q182.21 7.06 181.15 8.38L181.15 8.38Q179.16 10.80 174.96 10.80L174.96 10.80Q173.23 10.80 170.66 10.32L170.66 10.32Q170.88 12.91 172.38 14.77Q173.88 16.63 175.96 16.63Q178.03 16.63 179.83 15.46L179.83 15.46Q180.62 15.02 180.90 15.02Q181.18 15.02 181.40 15.25Q181.63 15.48 181.63 15.82L181.63 15.82ZM196.61 13.46L196.61 13.46Q196.61 15.70 194.92 17.21Q193.22 18.72 190.54 18.72L190.54 18.72Q188.45 18.72 186.65 17.71Q184.85 16.70 184.85 15.74L184.85 15.74Q184.85 15.31 185.14 15.02Q185.42 14.74 185.87 14.74Q186.31 14.74 186.77 15.04Q187.22 15.34 187.61 15.68Q187.99 16.03 188.77 16.33Q189.55 16.63 190.54 16.63L190.54 16.63Q192.17 16.63 193.24 15.79Q194.30 14.95 194.30 13.46L194.30 13.46Q194.30 12.48 193.39 11.59Q192.48 10.70 191.18 9.98Q189.89 9.26 188.59 8.51Q187.30 7.75 186.38 6.66Q185.47 5.57 185.47 4.30L185.47 4.30Q185.47 2.54 187.01 1.27Q188.54 0 190.63 0Q192.72 0 194.18 0.71Q195.65 1.42 195.65 2.33L195.65 2.33Q195.65 2.78 195.36 3.05Q195.07 3.31 194.59 3.31Q194.11 3.31 193.66 3Q193.20 2.69 192.53 2.38Q191.86 2.06 190.73 2.06Q189.60 2.06 188.69 2.69Q187.78 3.31 187.78 4.22Q187.78 5.14 188.69 5.92Q189.60 6.70 190.90 7.42Q192.19 8.14 193.49 8.93Q194.78 9.72 195.70 10.90Q196.61 12.07 196.61 13.46Z" transform="translate(0, 44.667)"></path></svg>